<svg xmlns="http://www.w3.org/2000/svg" width="920" height="560" viewBox="0 0 920 560" role="img" aria-labelledby="title desc">
  <title id="title">查看 Codex 结果示意图</title>
  <desc id="desc">Codex 展示解释和文件改动，用户先检查再接受的简化界面示意。</desc>
  <rect width="920" height="560" fill="#f4f7fb"/>
  <rect x="40" y="44" width="840" height="472" rx="18" fill="#ffffff" stroke="#d9e1ee" stroke-width="2"/>
  <rect x="72" y="82" width="364" height="394" rx="14" fill="#f8fafc" stroke="#d9e1ee"/>
  <rect x="484" y="82" width="324" height="394" rx="14" fill="#101827"/>
  <text x="104" y="126" fill="#182033" font-family="Microsoft YaHei, Arial" font-size="25" font-weight="900">Codex 的说明</text>
  <rect x="104" y="158" width="292" height="20" rx="5" fill="#dbe7ff"/>
  <rect x="104" y="196" width="250" height="20" rx="5" fill="#dbe7ff"/>
  <rect x="104" y="234" width="310" height="20" rx="5" fill="#dbe7ff"/>
  <rect x="104" y="288" width="140" height="44" rx="8" fill="#e1251b"/>
  <text x="135" y="317" fill="#ffffff" font-family="Microsoft YaHei, Arial" font-size="18" font-weight="800">先看解释</text>
  <rect x="262" y="288" width="132" height="44" rx="8" fill="#eef5ff" stroke="#cfe1ff"/>
  <text x="293" y="317" fill="#0c3f8f" font-family="Microsoft YaHei, Arial" font-size="18" font-weight="800">再确认</text>
  <text x="516" y="126" fill="#ffffff" font-family="Microsoft YaHei, Arial" font-size="25" font-weight="900">文件改动预览</text>
  <rect x="516" y="160" width="252" height="30" rx="6" fill="#22304a"/>
  <text x="536" y="181" fill="#cbd5e5" font-family="Consolas, monospace" font-size="15">index.html</text>
  <rect x="516" y="218" width="260" height="16" rx="4" fill="#2e7d4f"/>
  <rect x="516" y="252" width="218" height="16" rx="4" fill="#2e7d4f"/>
  <rect x="516" y="302" width="236" height="16" rx="4" fill="#8b3135"/>
  <rect x="516" y="336" width="276" height="16" rx="4" fill="#2e7d4f"/>
  <circle cx="794" cy="432" r="34" fill="#16a05d"/>
  <path d="M778 433l12 12 24-30" fill="none" stroke="#ffffff" stroke-width="8" stroke-linecap="round" stroke-linejoin="round"/>
</svg>
